<?xml version="1.0" encoding="UTF-8"?>
<svg xmlns="http://www.w3.org/2000/svg" xmlns:xlink="http://www.w3.org/1999/xlink" width="40px" height="40px" viewBox="0 0 40 40" version="1.1">
<g id="surface1">
<path style=" stroke:none;fill-rule:evenodd;fill:rgb(100%,99.607843%,99.607843%);fill-opacity:1;" d="M 20 0 C 8.949219 0 0 8.949219 0 20 C 0 28.851562 5.726562 36.324219 13.675781 38.976562 C 14.675781 39.148438 15.050781 38.550781 15.050781 38.023438 C 15.050781 37.550781 15.023438 35.976562 15.023438 34.300781 C 10 35.226562 8.699219 33.074219 8.300781 31.949219 C 8.074219 31.375 7.101562 29.601562 6.25 29.125 C 5.550781 28.75 4.550781 27.824219 6.226562 27.800781 C 7.800781 27.773438 8.925781 29.25 9.300781 29.851562 C 11.101562 32.875 13.976562 32.023438 15.125 31.5 C 15.300781 30.199219 15.824219 29.324219 16.398438 28.824219 C 11.949219 28.324219 7.300781 26.601562 7.300781 18.949219 C 7.300781 16.773438 8.074219 14.976562 9.351562 13.574219 C 9.148438 13.074219 8.449219 11.023438 9.550781 8.273438 C 9.550781 8.273438 11.226562 7.75 15.050781 10.324219 C 16.648438 9.875 18.351562 9.648438 20.050781 9.648438 C 21.75 9.648438 23.449219 9.875 25.050781 10.324219 C 28.875 7.726562 30.550781 8.273438 30.550781 8.273438 C 31.648438 11.023438 30.949219 13.074219 30.75 13.574219 C 32.023438 14.976562 32.800781 16.75 32.800781 18.949219 C 32.800781 26.625 28.125 28.324219 23.675781 28.824219 C 24.398438 29.449219 25.023438 30.648438 25.023438 32.523438 C 25.023438 35.199219 25 37.351562 25 38.023438 C 25 38.550781 25.375 39.175781 26.375 38.976562 C 30.34375 37.632812 33.796875 35.082031 36.238281 31.679688 C 38.683594 28.273438 40 24.191406 40 20 C 40 8.949219 31.050781 0 20 0 Z M 20 0 "/>
</g>
</svg>
