<svg width="50" height="50" viewBox="0 0 50 50" fill="none" xmlns="http://www.w3.org/2000/svg">
   <!-- skills -->
    <g id="code">
        <path fill-rule="evenodd" clip-rule="evenodd" d="M18.3125 42.0645L27.2623 6.6875L31.4375 7.87241L22.4878 43.3125L18.3125 42.0645Z" fill="#7572D5"/>
        <path fill-rule="evenodd" clip-rule="evenodd" d="M13.5025 12.6875L16.5625 15.9278L7.99501 25.0001L16.5625 34.0721L13.5025 37.3125L1.875 25.0001L13.5025 12.6875Z" fill="#7572D5"/>
        <path fill-rule="evenodd" clip-rule="evenodd" d="M36.4976 12.6875L33.4375 15.9278L42.0051 25.0001L33.4375 34.0721L36.4976 37.3125L48.125 25.0001L36.4976 12.6875Z" fill="#7572D5"/>
    </g>

    <g id="css">
        <path d="M38.0508 10.8437L12.946 10.8377L13.3515 15.7547L32.6381 15.7577L32.1519 20.8502H19.5035L19.9608 25.6742H31.7358L31.0392 32.2806L25.4969 33.7886L19.8663 32.2701L19.508 28.3134H14.5359L15.0877 35.5411L25.4969 38.7341L35.7309 35.8652L38.0493 10.8452L38.0508 10.8437ZM5.49844 2.56873H45.4984L41.86 42.9999L25.4542 47.5687L9.13993 42.9968L5.49844 2.56873Z" fill="#7572D5"/>
    </g>

    <g id="quote" clip-path="url(#clip0_20_1854)">
<path d="M13.5417 20.8333C13.0771 20.8333 12.6312 20.9042 12.1875 20.9688C12.3312 20.4854 12.4792 19.9938 12.7167 19.5521C12.9542 18.9104 13.325 18.3542 13.6937 17.7938C14.0021 17.1875 14.5458 16.7771 14.9458 16.2583C15.3646 15.7542 15.9354 15.4188 16.3875 15C16.8312 14.5625 17.4125 14.3438 17.875 14.0354C18.3583 13.7583 18.7792 13.4521 19.2292 13.3063L20.3521 12.8438L21.3396 12.4333L20.3292 8.39584L19.0854 8.69584C18.6875 8.79584 18.2021 8.9125 17.65 9.05209C17.0854 9.15625 16.4833 9.44167 15.8125 9.70209C15.15 9.99792 14.3833 10.1979 13.6708 10.6729C12.9542 11.1271 12.1271 11.5063 11.3979 12.1146C10.6917 12.7417 9.83958 13.2854 9.21041 14.0833C8.52291 14.8292 7.84375 15.6125 7.31666 16.5042C6.70625 17.3542 6.29166 18.2875 5.85416 19.2104C5.45833 20.1333 5.13958 21.0771 4.87916 21.9938C4.38541 23.8313 4.16458 25.5771 4.07916 27.0708C4.00833 28.5667 4.05 29.8104 4.1375 30.7104C4.16875 31.1354 4.22708 31.5479 4.26875 31.8333L4.32083 32.1833L4.375 32.1708C4.74554 33.9017 5.59855 35.4924 6.83534 36.7587C8.07213 38.0251 9.64217 38.9154 11.3638 39.3267C13.0855 39.738 14.8884 39.6535 16.5641 39.083C18.2397 38.5124 19.7196 37.4792 20.8325 36.1027C21.9454 34.7262 22.6459 33.0628 22.853 31.3048C23.06 29.5468 22.7651 27.7662 22.0024 26.1688C21.2396 24.5714 20.0403 23.2226 18.543 22.2784C17.0458 21.3342 15.3118 20.8332 13.5417 20.8333ZM36.4583 20.8333C35.9937 20.8333 35.5479 20.9042 35.1042 20.9688C35.2479 20.4854 35.3958 19.9938 35.6333 19.5521C35.8708 18.9104 36.2417 18.3542 36.6104 17.7938C36.9188 17.1875 37.4625 16.7771 37.8625 16.2583C38.2812 15.7542 38.8521 15.4188 39.3042 15C39.7479 14.5625 40.3292 14.3438 40.7917 14.0354C41.275 13.7583 41.6958 13.4521 42.1458 13.3063L43.2687 12.8438L44.2562 12.4333L43.2458 8.39584L42.0021 8.69584C41.6042 8.79584 41.1187 8.9125 40.5667 9.05209C40.0021 9.15625 39.4 9.44167 38.7292 9.70209C38.0688 10 37.3 10.1979 36.5875 10.675C35.8708 11.1292 35.0438 11.5083 34.3146 12.1167C33.6083 12.7438 32.7562 13.2875 32.1271 14.0833C31.4396 14.8292 30.7604 15.6125 30.2333 16.5042C29.6229 17.3542 29.2083 18.2875 28.7708 19.2104C28.375 20.1333 28.0562 21.0771 27.7958 21.9938C27.3021 23.8313 27.0812 25.5771 26.9958 27.0708C26.925 28.5667 26.9667 29.8104 27.0542 30.7104C27.0854 31.1354 27.1437 31.5479 27.1854 31.8333L27.2375 32.1833L27.2917 32.1708C27.6622 33.9017 28.5152 35.4924 29.752 36.7587C30.9888 38.0251 32.5588 38.9154 34.2805 39.3267C36.0022 39.738 37.8051 39.6535 39.4807 39.083C41.1564 38.5124 42.6363 37.4792 43.7492 36.1027C44.8621 34.7262 45.5626 33.0628 45.7696 31.3048C45.9766 29.5468 45.6817 27.7662 44.919 26.1688C44.1563 24.5714 42.957 23.2226 41.4597 22.2784C39.9624 21.3342 38.2284 20.8332 36.4583 20.8333Z" fill="#7572D5"/>
    </g>

    <g id="react">
       <g clip-path="url(#clip0_20_1854)">
<path d="M47.8125 25C47.8125 22.0833 44.6875 19.375 39.4792 17.5L38.5417 17.1875V16.7708C39.6875 11.0416 38.8542 6.7708 36.25 5.2083C33.6458 3.6458 29.7917 5.10414 25.625 8.74997L25 9.37497L24.7917 9.16664H24.5833C20.3125 5.2083 16.1458 3.85414 13.5417 5.31247C10.9375 6.7708 10.2083 10.8333 11.25 16.1458C11.3596 16.4838 11.4295 16.8333 11.4583 17.1875L10.3125 17.6041C5.20833 19.375 2.1875 22.0833 2.1875 25C2.1875 27.9166 5.52083 30.8333 10.7292 32.7083L11.4583 32.9166C11.3296 33.2854 11.2593 33.672 11.25 34.0625C10.2083 39.2708 11.1458 43.2291 13.5417 44.6875C15.9375 46.1458 20.3125 44.7916 24.4792 41.1458L25.1042 40.625L25.9375 41.4583C28.8542 43.9583 31.7708 45.3125 34.0625 45.3125C34.8708 45.3309 35.6671 45.1137 36.3542 44.6875C38.9583 43.2291 39.8958 38.9583 38.75 33.5416V33.3333C38.705 33.1619 38.6702 32.988 38.6458 32.8125H38.9583C44.4792 30.8333 47.8125 28.0208 47.8125 25ZM44.7917 25C44.7917 26.25 42.5 28.4375 38.0208 29.8958H37.8125C37.2664 28.2202 36.6051 26.5843 35.8333 25C36.5625 23.3333 37.1875 21.6666 37.7083 20.1041L38.5417 20.3125C42.7083 21.7708 44.7917 23.75 44.7917 25ZM27.9167 39.1666L27.0833 38.5416C28.2761 37.2201 29.3891 35.8287 30.4167 34.375L35.7292 33.5416C35.8333 33.75 35.8333 33.9583 35.9375 34.0625C36.3087 35.9492 36.379 37.8829 36.1458 39.7916C35.9995 40.7045 35.5608 41.5452 34.8958 42.1875C33.8542 42.8125 31.0417 41.9791 27.9167 39.1666ZM26.5625 34.5833L25.1042 36.4583L23.4375 34.5833H26.5625ZM12.2917 20C12.8152 21.7174 13.4771 23.3895 14.2708 25C13.4765 26.646 12.8146 28.3528 12.2917 30.1041L11.6667 29.8958C9.84256 29.3201 8.1454 28.4008 6.66667 27.1875C6.28377 26.9455 5.95605 26.6257 5.7048 26.2488C5.45356 25.872 5.2844 25.4465 5.20833 25C5.20833 23.75 7.29167 21.7708 11.25 20.4166L12.2917 20ZM23.4375 15.4166L25 13.6458L26.5625 15.4166H23.4375ZM34.8958 7.81247C36.0417 8.43747 36.6667 11.5625 35.7292 16.1458C35.734 16.2022 35.7272 16.2591 35.7093 16.3128C35.6914 16.3665 35.6627 16.416 35.625 16.4583L30.4167 15.625C29.3891 14.1712 28.2761 12.7799 27.0833 11.4583L27.7083 10.9375C31.0417 8.0208 33.75 7.18747 34.8958 7.81247ZM17.5 18.8541L16.6667 20.2083L15.9375 21.5625C15.625 20.8333 15.4167 20.1041 15.1042 19.2708L17.5 18.8541ZM15.1042 30.7291C15.4167 30 15.625 29.2708 15.9375 28.4375L16.6667 29.7916L17.5 31.1458L15.1042 30.7291ZM32.5 25C31.9699 26.142 31.3788 27.2548 30.7292 28.3333C30.1042 29.4791 29.375 30.5208 28.75 31.5625H21.25C20.5208 30.4166 19.7917 29.375 19.2708 28.3333C18.6161 27.2577 18.0248 26.1447 17.5 25C18.0054 23.8458 18.5974 22.7315 19.2708 21.6666C19.8693 20.5874 20.5301 19.544 21.25 18.5416C23.7457 18.3334 26.2543 18.3334 28.75 18.5416C29.4792 19.5833 30.1042 20.625 30.7292 21.6666C31.4026 22.7315 31.9946 23.8458 32.5 25ZM33.3333 20.2083L32.5 18.8541L34.8958 19.375C34.6639 20.1208 34.3856 20.8514 34.0625 21.5625L33.3333 20.2083ZM32.5 31.1458L33.3333 29.7916L34.0625 28.3333L35 30.7291L32.5 31.1458ZM22.8125 11.3541H22.9167L19.5833 15.5208L14.375 16.3541C14.2708 16.0416 14.2708 15.8333 14.1667 15.5208C13.3333 11.25 13.9583 8.3333 15 7.81247C15.2766 7.63082 15.61 7.55672 15.9375 7.60414C17.3958 7.60414 19.8958 8.6458 22.7083 11.1458L22.8125 11.3541ZM14.1667 34.5833C14.1857 34.2617 14.256 33.9452 14.375 33.6458L19.6875 34.375C20.689 35.8481 21.8034 37.2412 23.0208 38.5416L22.8125 38.75L22.6042 38.9583C21.184 40.2738 19.5211 41.2999 17.7083 41.9791C17.3107 42.1874 16.875 42.3133 16.4275 42.3491C15.98 42.3849 15.5299 42.3299 15.1042 42.1875C13.9583 41.5625 13.3333 38.75 14.1667 34.5833Z" fill="#7572D5"/>
<path d="M25 20.4166C24.0894 20.3959 23.1932 20.647 22.4259 21.1379C21.6586 21.6287 21.0549 22.3371 20.692 23.1726C20.3291 24.008 20.2233 24.9327 20.3882 25.8285C20.5532 26.7243 20.9812 27.5507 21.6179 28.2022C22.2545 28.8536 23.0709 29.3006 23.9627 29.4861C24.8545 29.6715 25.7813 29.587 26.6249 29.2434C27.4685 28.8998 28.1905 28.3126 28.6989 27.5568C29.2073 26.801 29.4789 25.9108 29.4792 24.9999C29.4795 23.8022 29.0109 22.6519 28.1738 21.7953C27.3366 20.9387 26.1974 20.4438 25 20.4166Z" fill="#7572D5"/>
</g>
<defs>
<clipPath id="clip0_20_1854">
<rect width="50" height="50" fill="white"/>
</clipPath>
</defs>
    </g>

    <g id="typeScript">
        <path d="M5 25V45H45V5H5V25ZM37.235 23.4067C38.2517 23.66 39.025 24.1117 39.7367 24.8483C40.105 25.2417 40.6517 25.9583 40.695 26.1317C40.7083 26.1817 38.9683 27.3483 37.915 28.0033C37.8767 28.0283 37.7233 27.8633 37.5533 27.61C37.0367 26.86 36.4983 26.5367 35.6733 26.48C34.46 26.3967 33.68 27.0317 33.6867 28.0917C33.6756 28.3523 33.7343 28.6112 33.8567 28.8417C34.1233 29.3933 34.62 29.725 36.1733 30.3967C39.0383 31.63 40.2633 32.4417 41.025 33.5967C41.875 34.885 42.0667 36.9433 41.4883 38.4733C40.855 40.1367 39.28 41.2667 37.0633 41.64C36.3783 41.7617 34.7533 41.7433 34.0167 41.61C32.41 41.3233 30.8867 40.53 29.9467 39.4883C29.5783 39.0833 28.86 38.0217 28.905 37.9467C28.9233 37.92 29.0883 37.8183 29.2717 37.7117C29.4517 37.61 30.1233 37.2217 30.7583 36.8533L31.9083 36.1867L32.15 36.5433C32.4867 37.0567 33.2217 37.7617 33.6667 37.9967C34.9433 38.67 36.695 38.575 37.5583 37.8C37.7319 37.6538 37.8694 37.4693 37.9599 37.2612C38.0504 37.053 38.0915 36.8267 38.08 36.6C38.08 36.1367 38.0217 35.9333 37.78 35.5833C37.47 35.14 36.835 34.7667 35.0317 33.9833C32.9683 33.095 32.08 32.5433 31.2667 31.6667C30.759 31.0881 30.3841 30.4055 30.1683 29.6667C30.0167 29.1017 29.9783 27.685 30.0983 27.115C30.5233 25.12 32.0283 23.7317 34.2 23.3183C34.905 23.185 36.5433 23.235 37.235 23.4067ZM27.845 25.0767L27.8583 26.715H22.65V41.5083H18.9667V26.715H13.7633V25.1083C13.7633 24.2183 13.7817 23.475 13.8067 23.4583C13.8267 23.4317 16.995 23.4183 20.835 23.425L27.8267 23.445L27.845 25.0767Z" fill="#7572D5"/>
    </g>

    <g id="figma">
        <path d="M17.7083 4.16663C14.2565 4.16663 11.4583 6.96486 11.4583 10.4166C11.4583 13.8684 14.2565 16.6666 17.7083 16.6666H32.2916C35.7435 16.6666 38.5416 13.8684 38.5416 10.4166C38.5416 6.96486 35.7435 4.16663 32.2916 4.16663H17.7083Z" fill="#7572D5"/>
        <path d="M32.2917 18.75C28.8398 18.75 26.0417 21.5481 26.0417 25C26.0417 28.4519 28.8398 31.25 32.2917 31.25C35.7436 31.25 38.5417 28.4519 38.5417 25C38.5417 21.5481 35.7436 18.75 32.2917 18.75Z" fill="#7572D5"/>
        <path d="M11.4583 25C11.4583 21.5481 14.2565 18.75 17.7083 18.75H23.9583V31.25H17.7083C14.2565 31.25 11.4583 28.4519 11.4583 25Z" fill="#7572D5"/>
        <path d="M17.7083 33.3334C14.2565 33.3334 11.4583 36.1315 11.4583 39.5834C11.4583 43.0352 14.2565 45.8334 17.7083 45.8334C21.1602 45.8334 23.9583 43.0352 23.9583 39.5834V33.3334H17.7083Z" fill="#7572D5"/>
    </g>

    <g id="styledComponents">
        <path d="M37.2591 6.25L36.9888 7.64963C36.5708 10.3021 36.7221 11.061 37.8682 12.0454L38.9747 12.9546L37.8286 18.0305C37.1438 21.0588 36.3041 23.5968 35.7707 24.4308C35.313 25.1503 34.7796 26.2099 34.6642 26.7791C34.4732 27.4592 33.8245 28.1429 32.8334 28.7478C31.9576 29.2418 30.2385 30.5663 29.0203 31.6294C28.0472 32.4993 27.3769 33.0326 27.0129 33.2617L25.8235 34.196C25.4415 34.8046 25.2253 35.295 25.1424 35.6672C25.0595 36.0503 25.1063 36.3044 25.2289 36.4905C25.3478 36.6695 25.5532 36.7948 25.8343 36.8736C26.1671 36.951 26.5097 36.9788 26.8507 36.9559C27.6222 36.9035 28.3858 36.7691 29.1284 36.555C29.3807 36.487 29.5789 36.4225 29.7519 36.3653C30.0186 36.0395 30.6349 35.4238 31.7269 34.3535C34.6246 31.5149 35.731 29.9613 34.5885 30.3802C34.1669 30.5305 34.3579 30.1511 35.0823 29.3922C36.6104 27.9138 37.4862 25.6801 39.317 18.6748C40.7659 13.1443 40.7659 13.0656 41.8327 13.0656C42.3336 13.0656 43.75 13.1515 43.75 13.1515V6.25H40.4992H37.2591ZM24.4216 18.0806C23.3692 18.0735 21.1058 19.6664 14.3303 25.1611C14.0383 25.8519 14.0131 26.328 14.1464 26.6359C14.2329 26.8471 14.3915 26.9938 14.6114 27.1012C14.8276 27.2086 15.1087 27.2731 15.4187 27.2981C16.035 27.3518 16.763 27.2552 17.3504 27.1406L17.7469 27.0511C17.8826 26.8704 18.0608 26.7254 18.2659 26.6287C18.6839 26.3996 20.4391 24.8103 22.1943 23.1064C25.2829 19.9993 26.0073 18.5961 24.7495 18.1415C24.6463 18.1007 24.5326 18.08 24.4216 18.0806ZM32.336 20.2391C31.4098 20.2642 29.7411 21.3309 26.8831 23.5968C25.4487 24.753 24.5405 25.3759 24.0539 25.5047L22.1654 26.9867C21.4554 28.2753 21.3509 29.0736 21.5383 29.5139C21.5852 29.6225 21.6533 29.7208 21.7387 29.8031C21.8241 29.8855 21.925 29.9502 22.0357 29.9936C22.311 30.1015 22.6046 30.1562 22.9006 30.1546C23.608 30.1471 24.3112 30.0448 24.991 29.8504C25.3453 29.7559 25.6952 29.6461 26.0398 29.521L26.1443 29.4781L26.3353 29.3779C26.6957 28.9161 27.5246 28.0462 28.5626 27.044C31.8423 23.9011 33.5181 21.6674 33.1758 20.8333C33.0208 20.4288 32.7541 20.2248 32.336 20.2391ZM23.5998 24.1051C23.3331 24.1337 22.7349 24.5919 21.6573 25.5298C20.1003 26.8972 18.4028 27.6847 17.8154 27.3339C17.6788 27.3645 17.5419 27.3932 17.4045 27.4198C16.8062 27.5379 16.0602 27.6346 15.3934 27.5809C15.0793 27.562 14.7714 27.4855 14.4852 27.3554C14.2153 27.2328 13.9999 27.0164 13.8797 26.7468C13.7464 26.4247 13.7464 26.0238 13.8978 25.5119L11.5551 27.4234L6.2536 31.7798V38.8424L23.6251 25.2506C23.6217 25.1018 23.6411 24.9533 23.6827 24.8103C23.8161 24.3306 23.8089 24.0872 23.5998 24.1087V24.1051ZM31.0746 26.3925C30.8115 26.3925 30.3718 26.7612 29.669 27.5021C28.714 28.5152 27.2111 29.496 26.4146 29.6964L26.292 29.7609C26.1613 29.8145 26.0291 29.8646 25.8956 29.9112C25.6794 29.9828 25.3982 30.0687 25.0739 30.1546C24.4252 30.33 23.6179 30.4911 22.897 30.4732C22.5572 30.4728 22.2207 30.4072 21.9059 30.2799C21.6093 30.1585 21.3716 29.9275 21.2428 29.6356C21.0338 29.138 21.1167 28.44 21.5744 27.4485L6.25 39.4366V43.75H12.9823L27.2615 32.6103C27.6327 32.2022 28.1914 31.6438 28.9446 30.9457C30.9629 29.0879 31.4206 28.4472 31.4206 27.4986C31.4206 26.7612 31.3377 26.3889 31.0746 26.3889V26.3925ZM34.4732 33.3727L33.2514 34.5826C32.5667 35.2269 31.3449 36.0216 30.5088 36.3617L30.343 36.4333L30.3322 36.4512L30.2961 36.487C30.2637 36.512 30.2493 36.5156 30.2241 36.5263C29.8903 36.6518 29.5512 36.7629 29.2077 36.8592C28.4441 37.08 27.6586 37.218 26.8651 37.2709C26.4899 37.2948 26.1132 37.2622 25.7478 37.1743C25.4307 37.1049 25.1508 36.9213 24.9622 36.6588C24.7892 36.3939 24.7387 36.0395 24.836 35.6028C24.9134 35.2919 25.0284 34.9914 25.1784 34.7079L13.6563 43.75H28.9807L30.8115 41.6667C33.3271 38.7529 34.4732 36.6695 34.4732 34.8869V33.3727Z" fill="#7572D5"/>
    </g>

<!-- social icons -->
    <g id="instagram">
        <path d="M15.6516 2.09998H5.34844C3.55687 2.09998 2.1 3.55628 2.1 5.34715V8.77799V15.6528C2.1 17.4437 3.55687 18.9 5.34844 18.9H15.6516C17.4431 18.9 18.9 17.4437 18.9 15.6528V8.77143V5.34058C18.8934 3.55628 17.4366 2.09998 15.6516 2.09998ZM16.5834 4.03516H16.9575V4.40251V6.88217L14.1159 6.88873L14.1094 4.04172L16.5834 4.03516ZM8.09812 8.77143C8.63625 8.03016 9.50906 7.53816 10.4934 7.53816C11.4778 7.53816 12.3506 8.0236 12.8887 8.77143C13.2431 9.25687 13.4466 9.85382 13.4466 10.4967C13.4466 12.1236 12.1209 13.4552 10.4869 13.4552C8.85281 13.4552 7.54031 12.1236 7.54031 10.4967C7.54031 9.85382 7.75031 9.25687 8.09812 8.77143ZM17.2594 15.6462C17.2594 16.5318 16.5375 17.2534 15.6516 17.2534H5.34844C4.4625 17.2534 3.74062 16.5318 3.74062 15.6462V8.77143H6.2475C6.03094 9.30279 5.90625 9.88662 5.90625 10.4967C5.90625 13.0288 7.96687 15.0887 10.5 15.0887C13.0331 15.0887 15.0937 13.0288 15.0937 10.4967C15.0937 9.88662 14.9691 9.30279 14.7525 8.77143H17.2594V15.6462Z" fill="#7572D5"/>
    </g>



    <g id="linkedin">
        <path d="M5.80637 7.88635H2.53296V18.3626H5.80637V7.88635Z" fill="#7572D5"/>
        <path d="M4.10079 2.94019C2.89376 2.94019 2.10001 3.72082 2.10001 4.75729C2.10001 5.77408 2.86752 6.57439 4.05487 6.57439H4.08111C5.31437 6.57439 6.08189 5.76752 6.07533 4.75729C6.04909 3.72082 5.30781 2.94019 4.10079 2.94019Z" fill="#7572D5"/>
        <path d="M14.7476 7.78796C12.8714 7.78796 11.6972 8.81131 11.4807 9.53291V7.88636H7.8006C7.84652 8.75883 7.8006 18.3626 7.8006 18.3626H11.4807V12.7014C11.4807 12.3799 11.4676 12.065 11.5594 11.842C11.8087 11.2123 12.3532 10.5563 13.3306 10.5563C14.6098 10.5563 15.1871 11.5271 15.1871 12.9441V18.3626H18.9V12.5374C18.9 9.29675 17.0764 7.78796 14.7476 7.78796Z" fill="#7572D5"/>
    </g>



    <g id="telegram">
        <path d="M18.9057 4.76449L16.3705 16.7208C16.1791 17.5644 15.6804 17.7745 14.9717 17.3772L11.1085 14.5305L9.24472 16.3235C9.0383 16.5299 8.86608 16.7022 8.46824 16.7022L8.74607 12.7681L15.9054 6.29885C16.2169 6.02162 15.8376 5.86741 15.4218 6.14524L6.57084 11.7186L2.76043 10.5257C1.93174 10.2671 1.91674 9.69701 2.93325 9.29917L17.837 3.55716C18.5271 3.29854 19.1308 3.71018 18.9057 4.76449Z" fill="#1F1F20"/>
    </g>


    <g id="vk">
        <path d="M18.1696 13.9941C17.8038 13.5391 17.3881 13.1314 16.9861 12.737C16.8432 12.5968 16.6954 12.4518 16.5529 12.3076C16.1439 11.8932 16.129 11.7375 16.4529 11.2668C16.6769 10.9424 16.9145 10.6175 17.1442 10.3033C17.3526 10.0183 17.568 9.72351 17.7746 9.42777L17.817 9.36697C18.2117 8.80103 18.6199 8.21583 18.8372 7.50988C18.8936 7.32363 18.9528 7.04955 18.8174 6.82036C18.682 6.59137 18.4195 6.52151 18.2337 6.48888C18.1418 6.47273 18.0506 6.47053 17.9659 6.47053L15.3809 6.46861L15.3595 6.46842C14.9687 6.46842 14.7053 6.65927 14.5544 7.05194C14.4103 7.42713 14.252 7.82665 14.0714 8.20653C13.7119 8.96298 13.2554 9.83425 12.5948 10.5609L12.5669 10.5918C12.4889 10.6787 12.4005 10.777 12.3359 10.777C12.326 10.777 12.3152 10.7751 12.303 10.7711C12.1662 10.7159 12.0744 10.3726 12.0785 10.213C12.0786 10.2108 12.0786 10.2086 12.0786 10.2064L12.0768 7.1105C12.0768 7.09976 12.0761 7.08913 12.0747 7.07849C12.009 6.57522 11.8633 6.26195 11.3129 6.15026C11.2983 6.14724 11.2834 6.14575 11.2685 6.14575H8.5806C8.14268 6.14575 7.90138 6.33018 7.67456 6.60623C7.61334 6.68002 7.48589 6.83364 7.54906 7.01998C7.61315 7.20911 7.8212 7.24955 7.88894 7.26268C8.22522 7.32899 8.41477 7.54213 8.46846 7.91453C8.56219 8.56121 8.57371 9.25144 8.50471 10.0868C8.48547 10.3189 8.44742 10.4982 8.38471 10.6514C8.37015 10.6872 8.31849 10.8038 8.26582 10.8039C8.24908 10.8039 8.20067 10.7971 8.11248 10.7341C7.90397 10.5861 7.75142 10.3749 7.57357 10.114C6.96853 9.22796 6.46074 8.25191 6.02097 7.12938C5.85787 6.71615 5.55327 6.48481 5.16289 6.478C4.73395 6.47125 4.34504 6.46799 3.97413 6.46799C3.56886 6.46799 3.19314 6.47187 2.82625 6.47978C2.51217 6.48553 2.29492 6.58308 2.18061 6.76996C2.06611 6.95697 2.07356 7.20264 2.20276 7.50001C3.23702 9.88254 4.17478 11.6149 5.24345 13.1171C5.99225 14.1683 6.74333 14.8959 7.60686 15.4068C8.51664 15.9461 9.5362 16.2083 10.7237 16.2083C10.8583 16.2083 10.9975 16.2048 11.1379 16.198C11.8279 16.1632 12.0839 15.9044 12.1163 15.2082C12.1317 14.8525 12.1692 14.4793 12.338 14.1611C12.4445 13.9606 12.5439 13.9606 12.5765 13.9606C12.6394 13.9606 12.7174 13.9906 12.8011 14.0468C12.9513 14.1484 13.0801 14.2845 13.1857 14.4034C13.285 14.5163 13.3833 14.6304 13.4817 14.7446C13.6939 14.9909 13.9134 15.2456 14.1427 15.4871C14.6445 16.0162 15.1973 16.2488 15.8323 16.1983H18.2023C18.2073 16.1983 18.2124 16.1981 18.2175 16.1978C18.4536 16.1817 18.6582 16.0459 18.7786 15.8254C18.9279 15.5522 18.9249 15.2037 18.7706 14.893C18.5956 14.5415 18.3685 14.2413 18.1696 13.9941Z" fill="#7572D5"/>
    </g>

    <!-- logo -->
<g id="rocket">
<path style=" stroke:none;fill-rule:nonzero;fill:rgb(90.588235%,23.137255%,21.568627%);fill-opacity:1;" d="M 24.511719 14.707031 C 24.511719 14.976562 24.730469 15.195312 25 15.195312 C 25.269531 15.195312 25.488281 14.976562 25.488281 14.707031 C 25.488281 14.4375 25.269531 14.21875 25 14.21875 C 24.730469 14.21875 24.511719 14.4375 24.511719 14.707031 Z M 24.511719 14.707031 "/>
<path style=" stroke:none;fill-rule:nonzero;fill:rgb(22.352941%,22.352941%,22.745098%);fill-opacity:1;" d="M 19.546875 36.351562 C 19.648438 36.320312 19.746094 36.285156 19.847656 36.253906 C 19.75 36.285156 19.648438 36.320312 19.546875 36.351562 Z M 19.546875 36.351562 C 19.648438 36.320312 19.746094 36.285156 19.847656 36.253906 C 19.75 36.285156 19.648438 36.320312 19.546875 36.351562 Z M 19.546875 36.351562 "/>
<path style=" stroke:none;fill-rule:nonzero;fill:rgb(90.588235%,23.137255%,21.568627%);fill-opacity:1;" d="M 24.992188 12.53125 C 26.183594 12.53125 27.148438 13.496094 27.148438 14.6875 C 27.148438 15.878906 26.183594 16.84375 24.992188 16.84375 C 23.796875 16.84375 22.832031 15.878906 22.832031 14.6875 C 22.832031 13.496094 23.804688 12.53125 24.992188 12.53125 M 24.992188 11.554688 C 23.257812 11.554688 21.855469 12.953125 21.855469 14.6875 C 21.855469 16.421875 23.257812 17.820312 24.992188 17.820312 C 26.722656 17.820312 28.125 16.421875 28.125 14.6875 C 28.125 12.953125 26.722656 11.554688 24.992188 11.554688 Z M 24.992188 11.554688 "/>
<path style=" stroke:none;fill-rule:nonzero;fill:rgb(22.352941%,22.352941%,22.745098%);fill-opacity:1;" d="M 35.679688 25.855469 C 35.699219 25.429688 35.707031 25.003906 35.707031 24.574219 C 35.707031 15.804688 31.503906 8.015625 25 3.117188 C 18.5 8.015625 14.296875 15.804688 14.296875 24.574219 C 14.296875 25.003906 14.304688 25.429688 14.328125 25.851562 C 11.59375 28.585938 9.902344 32.359375 9.902344 36.527344 C 9.902344 39.539062 10.78125 42.34375 12.300781 44.695312 C 13.78125 42.265625 15.949219 40.296875 18.535156 39.066406 C 20.4375 38.160156 22.574219 37.652344 24.824219 37.652344 C 27.183594 37.652344 29.410156 38.207031 31.382812 39.199219 C 33.945312 40.484375 36.085938 42.503906 37.515625 44.980469 C 39.144531 42.570312 40.097656 39.664062 40.097656 36.527344 C 40.097656 32.359375 38.40625 28.589844 35.679688 25.855469 Z M 17.144531 18.71875 C 17.59375 16.871094 18.261719 15.074219 19.125 13.375 C 19.976562 11.699219 21.019531 10.128906 22.230469 8.691406 C 23.082031 7.683594 24.007812 6.742188 25.003906 5.882812 C 26 6.742188 26.929688 7.683594 27.777344 8.691406 C 28.988281 10.132812 30.035156 11.707031 30.882812 13.375 C 31.75 15.074219 32.417969 16.871094 32.867188 18.71875 C 33.289062 20.46875 33.523438 22.269531 33.558594 24.085938 C 31.125 22.414062 28.171875 21.429688 25 21.429688 C 21.828125 21.429688 18.882812 22.414062 16.449219 24.085938 C 16.484375 22.269531 16.71875 20.46875 17.144531 18.71875 Z M 12.71875 40.652344 C 12.273438 39.335938 12.050781 37.945312 12.050781 36.53125 C 12.050781 34.785156 12.390625 33.085938 13.066406 31.492188 C 13.476562 30.527344 13.996094 29.617188 14.625 28.785156 C 15.097656 31.785156 16.0625 34.628906 17.445312 37.210938 C 15.667969 38.082031 14.078125 39.242188 12.71875 40.652344 Z M 30.503906 36.488281 C 30.46875 36.476562 30.429688 36.464844 30.394531 36.449219 C 30.375 36.441406 30.351562 36.4375 30.332031 36.425781 C 30.304688 36.414062 30.269531 36.402344 30.238281 36.390625 C 30.199219 36.375 30.167969 36.367188 30.128906 36.351562 C 30.089844 36.335938 30.054688 36.328125 30.015625 36.320312 L 29.972656 36.304688 C 29.921875 36.289062 29.867188 36.269531 29.820312 36.253906 C 29.761719 36.234375 29.703125 36.21875 29.648438 36.203125 L 29.503906 36.15625 C 29.492188 36.152344 29.484375 36.152344 29.46875 36.148438 C 29.414062 36.132812 29.355469 36.113281 29.300781 36.097656 C 29.242188 36.085938 29.183594 36.070312 29.132812 36.054688 L 28.78125 35.96875 C 28.730469 35.953125 28.675781 35.941406 28.628906 35.933594 C 28.570312 35.917969 28.511719 35.90625 28.453125 35.894531 C 28.390625 35.878906 28.332031 35.863281 28.265625 35.855469 L 28.253906 35.855469 C 28.207031 35.84375 28.160156 35.835938 28.117188 35.824219 C 28.097656 35.820312 28.082031 35.820312 28.0625 35.816406 C 28.007812 35.804688 27.953125 35.796875 27.894531 35.785156 C 27.835938 35.777344 27.777344 35.765625 27.71875 35.75 L 27.457031 35.707031 C 27.414062 35.703125 27.363281 35.695312 27.320312 35.6875 C 27.28125 35.683594 27.242188 35.671875 27.199219 35.667969 C 27.070312 35.648438 26.949219 35.632812 26.820312 35.621094 C 26.761719 35.617188 26.710938 35.605469 26.652344 35.601562 L 26.632812 35.601562 C 26.585938 35.59375 26.542969 35.589844 26.496094 35.585938 C 26.441406 35.582031 26.390625 35.578125 26.339844 35.570312 C 26.253906 35.5625 26.171875 35.558594 26.089844 35.550781 C 26.050781 35.546875 26.015625 35.546875 25.976562 35.542969 C 25.933594 35.539062 25.882812 35.539062 25.839844 35.53125 C 25.820312 35.53125 25.800781 35.53125 25.78125 35.527344 C 25.726562 35.523438 25.679688 35.523438 25.625 35.515625 C 25.601562 35.515625 25.578125 35.511719 25.550781 35.511719 C 25.488281 35.507812 25.425781 35.507812 25.363281 35.507812 C 25.324219 35.507812 25.289062 35.503906 25.25 35.503906 C 25.191406 35.503906 25.132812 35.503906 25.078125 35.496094 L 24.398438 35.496094 C 24.289062 35.496094 24.175781 35.503906 24.0625 35.507812 C 24.019531 35.507812 23.96875 35.511719 23.925781 35.511719 C 23.886719 35.511719 23.851562 35.515625 23.8125 35.515625 C 23.746094 35.523438 23.675781 35.527344 23.613281 35.53125 C 23.546875 35.539062 23.480469 35.542969 23.414062 35.546875 C 23.34375 35.550781 23.28125 35.554688 23.214844 35.566406 C 23.183594 35.566406 23.15625 35.570312 23.125 35.574219 L 22.746094 35.621094 C 22.691406 35.625 22.640625 35.632812 22.589844 35.640625 C 22.539062 35.644531 22.484375 35.652344 22.4375 35.660156 C 22.28125 35.683594 22.125 35.703125 21.972656 35.730469 C 21.9375 35.738281 21.90625 35.742188 21.871094 35.75 C 21.828125 35.757812 21.789062 35.765625 21.742188 35.777344 C 21.691406 35.785156 21.632812 35.796875 21.578125 35.804688 C 21.535156 35.816406 21.496094 35.820312 21.449219 35.828125 C 21.429688 35.835938 21.410156 35.835938 21.398438 35.839844 C 21.363281 35.84375 21.328125 35.855469 21.292969 35.859375 C 21.234375 35.875 21.175781 35.882812 21.117188 35.898438 C 21.058594 35.914062 21 35.921875 20.941406 35.9375 C 20.933594 35.9375 20.921875 35.941406 20.914062 35.941406 C 20.890625 35.945312 20.863281 35.953125 20.839844 35.960938 C 20.785156 35.976562 20.726562 35.992188 20.667969 36.003906 C 20.605469 36.019531 20.546875 36.035156 20.484375 36.054688 C 20.464844 36.058594 20.4375 36.0625 20.414062 36.074219 C 20.351562 36.09375 20.28125 36.109375 20.21875 36.128906 C 20.148438 36.148438 20.074219 36.171875 19.996094 36.191406 C 19.945312 36.207031 19.890625 36.21875 19.84375 36.238281 C 19.742188 36.269531 19.644531 36.304688 19.539062 36.335938 C 19.507812 36.347656 19.472656 36.363281 19.4375 36.371094 C 18.707031 35.027344 18.101562 33.617188 17.632812 32.164062 C 17.0625 30.398438 16.695312 28.570312 16.53125 26.714844 C 16.503906 26.386719 16.484375 26.0625 16.46875 25.738281 C 16.464844 25.679688 16.464844 25.621094 16.464844 25.5625 C 16.460938 25.503906 16.460938 25.445312 16.460938 25.386719 C 16.460938 25.328125 16.453125 25.269531 16.453125 25.210938 C 16.453125 25.152344 16.449219 25.09375 16.449219 25.027344 C 17.367188 24.34375 18.363281 23.769531 19.429688 23.320312 C 21.191406 22.574219 23.066406 22.195312 25 22.195312 C 26.933594 22.195312 28.808594 22.578125 30.570312 23.320312 C 31.636719 23.769531 32.632812 24.339844 33.550781 25.027344 L 33.550781 25.035156 C 33.550781 25.082031 33.550781 25.125 33.542969 25.175781 C 33.542969 25.242188 33.539062 25.3125 33.539062 25.386719 C 33.539062 25.417969 33.539062 25.449219 33.535156 25.484375 C 33.53125 25.570312 33.53125 25.652344 33.523438 25.742188 C 33.511719 26.070312 33.484375 26.390625 33.460938 26.71875 C 33.300781 28.597656 32.925781 30.453125 32.339844 32.234375 C 31.863281 33.714844 31.25 35.136719 30.503906 36.488281 Z M 37.183594 40.929688 C 35.839844 39.464844 34.246094 38.257812 32.480469 37.351562 C 33.902344 34.730469 34.898438 31.84375 35.382812 28.785156 C 36.007812 29.617188 36.523438 30.523438 36.933594 31.492188 C 37.609375 33.089844 37.949219 34.785156 37.949219 36.53125 C 37.949219 38.046875 37.691406 39.527344 37.183594 40.929688 Z M 37.183594 40.929688 "/>
<path style=" stroke:none;fill-rule:nonzero;fill:rgb(90.588235%,23.137255%,21.568627%);fill-opacity:1;" d="M 25 40.003906 C 25.425781 40.003906 26.207031 41.125 26.207031 42.953125 C 26.207031 44.785156 25.425781 45.902344 25 45.902344 C 24.574219 45.902344 23.792969 44.785156 23.792969 42.953125 C 23.792969 41.125 24.574219 40.003906 25 40.003906 M 25 39.027344 C 23.792969 39.027344 22.816406 40.785156 22.816406 42.953125 C 22.816406 45.121094 23.792969 46.878906 25 46.878906 C 26.207031 46.878906 27.183594 45.121094 27.183594 42.953125 C 27.183594 40.785156 26.207031 39.027344 25 39.027344 Z M 25 39.027344 "/>
</g>

<g id ="github">
<path style=" stroke:none;fill-rule:evenodd;fill:rgb(100%,99.607843%,99.607843%);fill-opacity:1;" d="M 20 0 C 8.949219 0 0 8.949219 0 20 C 0 28.851562 5.726562 36.324219 13.675781 38.976562 C 14.675781 39.148438 15.050781 38.550781 15.050781 38.023438 C 15.050781 37.550781 15.023438 35.976562 15.023438 34.300781 C 10 35.226562 8.699219 33.074219 8.300781 31.949219 C 8.074219 31.375 7.101562 29.601562 6.25 29.125 C 5.550781 28.75 4.550781 27.824219 6.226562 27.800781 C 7.800781 27.773438 8.925781 29.25 9.300781 29.851562 C 11.101562 32.875 13.976562 32.023438 15.125 31.5 C 15.300781 30.199219 15.824219 29.324219 16.398438 28.824219 C 11.949219 28.324219 7.300781 26.601562 7.300781 18.949219 C 7.300781 16.773438 8.074219 14.976562 9.351562 13.574219 C 9.148438 13.074219 8.449219 11.023438 9.550781 8.273438 C 9.550781 8.273438 11.226562 7.75 15.050781 10.324219 C 16.648438 9.875 18.351562 9.648438 20.050781 9.648438 C 21.75 9.648438 23.449219 9.875 25.050781 10.324219 C 28.875 7.726562 30.550781 8.273438 30.550781 8.273438 C 31.648438 11.023438 30.949219 13.074219 30.75 13.574219 C 32.023438 14.976562 32.800781 16.75 32.800781 18.949219 C 32.800781 26.625 28.125 28.324219 23.675781 28.824219 C 24.398438 29.449219 25.023438 30.648438 25.023438 32.523438 C 25.023438 35.199219 25 37.351562 25 38.023438 C 25 38.550781 25.375 39.175781 26.375 38.976562 C 30.34375 37.632812 33.796875 35.082031 36.238281 31.679688 C 38.683594 28.273438 40 24.191406 40 20 C 40 8.949219 31.050781 0 20 0 Z M 20 0 "/>
</g>
</svg>




